HIERARCHY
ROOT Hips
{
	OFFSET 0.00000 0.00000 0.00000
	CHANNELS 6 Xposition Yposition Zposition Zrotation Yrotation Xrotation 
	JOINT LHipJoint
	{
		OFFSET 0 0 0
		CHANNELS 3 Zrotation Yrotation Xrotation
		JOINT LeftUpLeg
		{
			OFFSET 1.37590 -1.78394 0.89329
			CHANNELS 3 Zrotation Yrotation Xrotation
			JOINT LeftLeg
			{
				OFFSET 2.47928 -6.81178 0.00000
				CHANNELS 3 Zrotation Yrotation Xrotation
				JOINT LeftFoot
				{
					OFFSET 2.63345 -7.23535 0.00000
					CHANNELS 3 Zrotation Yrotation Xrotation
					JOINT LeftToeBase
					{
						OFFSET 0.23938 -0.65768 2.27012
						CHANNELS 3 Zrotation Yrotation Xrotation
						End Site
						{
							OFFSET 0.00000 -0.00000 1.18363
						}
					}
				}
			}
		}
	}
	JOINT RHipJoint
	{
		OFFSET 0 0 0
		CHANNELS 3 Zrotation Yrotation Xrotation
		JOINT RightUpLeg
		{
			OFFSET -1.33617 -1.78394 0.89329
			CHANNELS 3 Zrotation Yrotation Xrotation
			JOINT RightLeg
			{
				OFFSET -2.56922 -7.05888 0.00000
				CHANNELS 3 Zrotation Yrotation Xrotation
				JOINT RightFoot
				{
					OFFSET -2.56568 -7.04915 0.00000
					CHANNELS 3 Zrotation Yrotation Xrotation
					JOINT RightToeBase
					{
						OFFSET -0.27533 -0.75646 2.18105
						CHANNELS 3 Zrotation Yrotation Xrotation
						End Site
						{
							OFFSET -0.00000 -0.00000 1.15233
						}
					}
				}
			}
		}
	}
	JOINT LowerBack
	{
		OFFSET 0 0 0
		CHANNELS 3 Zrotation Yrotation Xrotation
		JOINT Spine
		{
			OFFSET 0.06190 2.15152 -0.00935
			CHANNELS 3 Zrotation Yrotation Xrotation
			JOINT Spine1
			{
				OFFSET 0.06334 2.15332 0.00872
				CHANNELS 3 Zrotation Yrotation Xrotation
				JOINT Neck
				{
					OFFSET 0 0 0
					CHANNELS 3 Zrotation Yrotation Xrotation
					JOINT Neck1
					{
						OFFSET -0.04202 1.66908 0.23524
						CHANNELS 3 Zrotation Yrotation Xrotation
						JOINT Head
						{
							OFFSET 0.07510 1.69357 -0.24440
							CHANNELS 3 Zrotation Yrotation Xrotation
							End Site
							{
								OFFSET 0.02556 1.71719 -0.11000
							}
						}
					}
				}
				JOINT LeftShoulder
				{
					OFFSET 0 0 0
					CHANNELS 3 Zrotation Yrotation Xrotation
					JOINT LeftArm
					{
						OFFSET 3.67168 1.26306 -0.41342
						CHANNELS 3 Zrotation Yrotation Xrotation
						JOINT LeftForeArm
						{
							OFFSET 4.68510 -0.00000 -0.00000
							CHANNELS 3 Zrotation Yrotation Xrotation
							JOINT LeftHand
							{
								OFFSET 3.39626 -0.00000 -0.00000
								CHANNELS 3 Zrotation Yrotation Xrotation
								JOINT LeftFingerBase
								{
									OFFSET 0 0 0
									CHANNELS 3 Zrotation Yrotation Xrotation
									JOINT LeftHandIndex1
									{
										OFFSET 0.48608 -0.00000 -0.00000
										CHANNELS 3 Zrotation Yrotation Xrotation
										End Site
										{
											OFFSET 0.39189 -0.00000 -0.00000
										}
									}
								}
								JOINT LThumb
								{
									OFFSET 0 0 0
									CHANNELS 3 Zrotation Yrotation Xrotation
									End Site
									{
										OFFSET 0.39787 -0.00000 0.39787
									}
								}
							}
						}
					}
				}
				JOINT RightShoulder
				{
					OFFSET 0 0 0
					CHANNELS 3 Zrotation Yrotation Xrotation
					JOINT RightArm
					{
						OFFSET -3.04136 1.42992 -0.76390
						CHANNELS 3 Zrotation Yrotation Xrotation
						JOINT RightForeArm
						{
							OFFSET -5.55576 -0.00000 -0.00000
							CHANNELS 3 Zrotation Yrotation Xrotation
							JOINT RightHand
							{
								OFFSET -3.32774 -0.00000 -0.00000
								CHANNELS 3 Zrotation Yrotation Xrotation
								JOINT RightFingerBase
								{
									OFFSET 0 0 0
									CHANNELS 3 Zrotation Yrotation Xrotation
									JOINT RightHandIndex1
									{
										OFFSET -0.50763 -0.00000 -0.00000
										CHANNELS 3 Zrotation Yrotation Xrotation
										End Site
										{
											OFFSET -0.40926 -0.00000 -0.00000
										}
									}
								}
								JOINT RThumb
								{
									OFFSET 0 0 0
									CHANNELS 3 Zrotation Yrotation Xrotation
									End Site
									{
										OFFSET -0.41551 -0.00000 0.41551
									}
								}
							}
						}
					}
				}
			}
		}
	}
}
MOTION
Frames: 11
Frame Time: .0083333
37.6325 17.8591 4.7955 0 0 0 0 0 0 -21 0 0 0 0 0 0 0 0 0 0 0 0 0 0 21 0 0 0 0 0 0 0 0 0 0 0 0 0 0 0 0 0 0 0 0 0 0 -16 0 0 21 0 0 11 0 0 0 -8 0 0 0 0 0 0 0 0 0 0 0 0 0 0 0 0 0 0 0 0 8 0 0 0 0 0 0 0 0 0 0 0 0 0 0 0 0 0
37.6325 17.8591 4.7955 -132.3370 -84.6343 141.3520 0.0000 0.0000 0.0000 -12.8226 -6.1127 -9.1664 0.3995 4.0582 11.2405 0.0697 6.3498 -10.6808 0.0156 0.8072 2.2185 0.0000 0.0000 0.0000 25.5001 8.2294 -11.1402 -0.7989 -5.7048 15.9303 -0.0931 -6.5072 -11.3434 -0.7082 -5.3784 14.9911 33.1021 6.9431 78.6137 56.9569 65.8111 47.3470 10.5203 77.8852 -152.1490 18.3933 24.7200 34.2594 -83.9458 65.9705 -69.5468 -23.2620 60.7959 75.5085 0.0000 0.0000 0.0000 107.0929 -71.0611 7.5912 26.0305 -37.2388 -8.9061 -0.0000 0.0000 -23.2414 2.3870 41.6782 1.5877 -7.1250 0.0000 -0.0000 -45.2941 66.2473 -25.3765 0.0000 0.0000 0.0000 -122.9073 72.5329 -6.5159 -22.4219 33.4505 -6.8169 0.0000 -0.0000 -32.8501 -9.2260 -47.8454 6.8662 7.1250 -0.0000 -0.0000 51.9882 -72.4237 -36.4727
37.6333 17.8581 4.7947 -132.1890 -84.6713 141.2220 0.0000 0.0000 0.0000 -12.8286 -6.1239 -9.2198 0.4024 4.0725 11.2807 0.0741 6.2711 -10.6797 0.0155 0.8040 2.2096 0.0000 0.0000 0.0000 25.4804 8.2179 -11.2616 -0.8146 -5.7592 16.0874 -0.0996 -6.5010 -11.4634 -0.7191 -5.4190 15.1075 33.0853 6.9218 78.6275 57.0004 65.8242 47.3931 10.4541 77.8556 -152.2120 18.4005 24.7306 34.2799 -83.9781 65.9186 -69.5501 -23.3585 60.7716 75.3131 0.0000 0.0000 0.0000 107.1896 -71.0545 7.5481 26.0419 -37.2501 -8.9130 -0.0000 0.0000 -23.2665 2.5080 41.8506 1.6739 -7.1250 0.0000 -0.0000 -45.4653 66.4026 -25.6442 0.0000 0.0000 0.0000 -122.7672 72.5376 -6.2871 -22.5002 33.5378 -6.8602 0.0000 -0.0000 -32.9219 -9.3538 -48.0262 6.9818 7.1250 -0.0000 -0.0000 52.3678 -72.5704 -36.9246
37.6336 17.8563 4.7944 -132.5200 -84.7006 141.5650 0.0000 0.0000 0.0000 -12.8730 -6.1275 -9.2544 0.4048 4.0847 11.3151 0.0763 6.2631 -10.7165 0.0161 0.8196 2.2524 0.0000 0.0000 0.0000 25.4271 8.2690 -11.3661 -0.8312 -5.8164 16.2527 -0.1046 -6.5247 -11.5858 -0.7156 -5.4061 15.0705 32.9509 6.9581 78.6704 57.1848 65.8704 47.6107 10.2870 77.8186 -152.3720 18.4647 24.7183 34.2754 -83.8314 65.9071 -69.3544 -23.2860 60.7186 75.3491 -0.0000 -0.0000 0.0000 107.3774 -71.0383 7.4323 26.0441 -37.2522 -8.9143 -0.0000 0.0000 -23.2510 2.4131 41.8589 1.6108 -7.1250 0.0000 -0.0000 -45.5695 66.3800 -25.6908 -0.0000 -0.0000 0.0000 -122.5180 72.5594 -6.0125 -22.5713 33.6166 -6.8995 0.0000 -0.0000 -32.9613 -9.4332 -48.0226 7.0411 7.1250 -0.0000 -0.0000 52.2919 -72.5970 -36.8901
37.6349 17.8547 4.7933 -132.7290 -84.7371 141.7880 0.0000 0.0000 0.0000 -12.9010 -6.1704 -9.2872 0.4062 4.0914 11.3340 0.0799 6.2124 -10.7301 0.0144 0.7759 2.1323 0.0000 0.0000 0.0000 25.3773 8.2616 -11.5060 -0.8506 -5.8821 16.4426 -0.1103 -6.5218 -11.6903 -0.7065 -5.3724 14.9738 32.4239 7.3874 78.1968 57.1521 65.7934 47.7476 10.1966 78.1291 -152.5040 18.2689 24.4684 34.0641 -82.7708 66.1319 -68.6813 -24.4297 61.2480 75.1011 -0.0000 -0.0000 0.0000 107.4458 -70.4809 7.6025 26.0232 -37.2316 -8.9017 -0.0000 0.0000 -23.1522 2.3464 41.9828 1.5700 -7.1250 0.0000 -0.0000 -45.8402 66.4452 -25.9361 -0.0000 -0.0000 0.0000 -120.9183 72.1529 -4.5084 -22.6348 33.6871 -6.9347 0.0000 -0.0000 -33.0103 -9.3851 -48.0235 7.0050 7.1250 -0.0000 -0.0000 52.3343 -72.5802 -36.9074
37.6356 17.8524 4.7920 -132.6300 -84.7862 141.7130 0.0000 0.0000 0.0000 -12.9162 -6.2052 -9.3353 0.4079 4.1001 11.3586 0.0845 6.1613 -10.7649 0.0189 0.8870 2.4379 0.0000 0.0000 0.0000 25.3388 8.2368 -11.6492 -0.8673 -5.9381 16.6051 -0.1120 -6.5450 -11.7489 -0.6898 -5.3095 14.7934 33.1203 6.6464 79.1068 57.5450 66.0173 47.8983 9.9930 77.4774 -152.6200 18.5945 24.8432 34.4251 -84.4194 65.6547 -69.6542 -22.9015 60.3761 75.0027 0.0000 0.0000 0.0000 107.6772 -71.4339 7.0936 26.0632 -37.2710 -8.9259 -0.0000 0.0000 -23.2748 2.4117 42.0805 1.6168 -7.1250 0.0000 -0.0000 -45.9434 66.5317 -26.0917 0.0000 0.0000 0.0000 -123.1466 72.8834 -6.4263 -22.7434 33.8070 -6.9950 0.0000 -0.0000 -32.9904 -9.5588 -48.1533 7.1502 7.1250 -0.0000 -0.0000 52.5437 -72.7144 -37.2109
37.6360 17.8505 4.7899 -132.7490 -84.8472 141.8580 0.0000 0.0000 0.0000 -12.9648 -6.1885 -9.4174 0.4119 4.1200 11.4146 0.0870 6.0907 -10.7342 0.0134 0.7466 2.0519 0.0000 0.0000 0.0000 25.2790 8.2443 -11.7872 -0.8862 -6.0008 16.7868 -0.1171 -6.5892 -11.8952 -0.6839 -5.2873 14.7297 18.1062 24.2807 28.5187 14.1640 40.5691 10.9843 175.6187 67.5320 2.7870 4.5710 10.0905 15.0477 -5.5444 57.3254 -5.4617 -166.1343 59.2480 -12.2740 0.0000 0.0000 0.0000 95.7259 -24.9334 20.9934 23.0716 -34.1670 -7.1785 -0.0000 0.0000 -21.9187 2.3677 42.3660 1.5960 -7.1250 0.0000 -0.0000 -46.4722 66.7129 -26.6297 0.0000 0.0000 0.0000 -99.5565 27.4126 20.4064 -20.4028 31.1246 -5.7381 0.0000 -0.0000 -31.4435 -9.6622 -48.5824 7.2759 7.1250 -0.0000 -0.0000 53.6537 -72.9836 -38.3847
37.6360 17.8479 4.7889 -132.8610 -84.8598 141.9910 0.0000 0.0000 0.0000 -12.9887 -6.1253 -9.4961 0.4187 4.1535 11.5089 0.0912 6.0272 -10.7475 0.0075 0.5611 1.5417 0.0000 0.0000 0.0000 25.2503 8.1979 -11.9394 -0.9062 -6.0663 16.9768 -0.1250 -6.5376 -11.9824 -0.6874 -5.3007 14.7684 18.1422 24.2455 28.6595 14.2511 40.6699 11.0683 175.6145 67.6810 2.8160 4.6020 10.1629 15.1371 -5.6623 57.6181 -5.5691 -165.9675 59.6970 -12.2530 -0.0000 -0.0000 0.0000 95.7578 -25.0635 20.9236 23.0562 -34.1502 -7.1698 -0.0000 0.0000 -21.8902 2.3277 42.3720 1.5692 -7.1250 0.0000 -0.0000 -46.5200 66.7049 -26.6539 -0.0000 -0.0000 0.0000 -99.5120 27.5153 20.5673 -20.4748 31.2102 -5.7754 0.0000 -0.0000 -31.5008 -9.7392 -48.6391 7.3407 7.1250 -0.0000 -0.0000 53.7524 -73.0417 -38.5243
37.6354 17.8461 4.7864 -133.0130 -84.9231 142.1440 0.0000 0.0000 0.0000 -13.0288 -6.1898 -9.4906 0.4222 4.1705 11.5568 0.1000 5.9446 -10.8338 0.0123 0.7171 1.9708 0.0000 0.0000 0.0000 25.1875 8.1642 -12.0394 -0.9197 -6.1102 17.1044 -0.1332 -6.5300 -12.1214 -0.6896 -5.3089 14.7917 18.1982 24.0954 29.1675 14.5613 41.0429 11.3990 175.6446 68.1740 2.9630 4.7753 10.2895 15.3656 -5.9307 58.0165 -5.7990 -165.3437 60.4860 -12.0590 0.0000 -0.0000 0.0000 95.9246 -25.5197 20.7090 23.0753 -34.1711 -7.1806 -0.0000 0.0000 -21.8399 2.3862 42.5895 1.6154 -7.1250 0.0000 -0.0000 -46.8423 66.8696 -27.0393 0.0000 -0.0000 0.0000 -99.3435 28.0202 20.7099 -20.5374 31.2844 -5.8079 0.0000 -0.0000 -31.5375 -9.8045 -48.9519 7.4254 7.1250 -0.0000 -0.0000 54.5984 -73.2289 -39.4104
37.6330 17.8447 4.7843 -132.9500 -84.9995 142.0720 0.0000 0.0000 0.0000 -13.0815 -6.2220 -9.4893 0.4241 4.1795 11.5822 0.1050 5.8782 -10.8605 0.0106 0.6662 1.8308 0.0000 0.0000 0.0000 25.1404 8.0809 -12.1491 -0.9409 -6.1782 17.3023 -0.1407 -6.5109 -12.2354 -0.6739 -5.2492 14.6207 18.2479 24.1149 29.0291 14.4831 40.9095 11.2880 175.6045 68.0820 2.8950 4.7348 10.2489 15.2694 -5.8059 57.7630 -5.6859 -165.5843 60.1780 -12.1230 -0.0000 -0.0000 0.0000 95.7870 -25.3630 20.8254 23.0514 -34.1449 -7.1671 -0.0000 0.0000 -21.8462 2.5312 42.8743 1.7228 -7.1250 0.0000 -0.0000 -47.2080 67.1047 -27.5284 -0.0000 -0.0000 0.0000 -99.4429 27.7668 20.7866 -20.5991 31.3574 -5.8399 0.0000 -0.0000 -31.6031 -9.9413 -48.9039 7.5244 7.1250 -0.0000 -0.0000 54.3514 -73.2543 -39.2325
37.6316 17.8421 4.7811 -132.9870 -85.0108 142.1340 0.0000 0.0000 0.0000 -13.0668 -6.2171 -9.5307 0.4229 4.1737 11.5659 0.1052 5.8482 -10.8310 0.0138 0.7594 2.0870 0.0000 0.0000 0.0000 25.1377 8.0991 -12.2785 -0.9604 -6.2402 17.4830 -0.1482 -6.5067 -12.3627 -0.6817 -5.2791 14.7065 18.2620 24.0323 29.3403 14.6712 41.1440 11.4969 175.6284 68.3290 2.9900 4.8156 10.3007 15.4118 -5.9685 57.9947 -5.8306 -165.2100 60.4720 -12.0270 -0.0000 -0.0000 0.0000 95.8970 -25.6524 20.7305 23.0633 -34.1580 -7.1738 -0.0000 0.0000 -21.8435 2.7487 43.2055 1.8826 -7.1250 0.0000 -0.0000 -47.6004 67.3918 -28.0919 -0.0000 -0.0000 0.0000 -99.3323 28.0437 20.9010 -20.6574 31.4263 -5.8703 0.0000 -0.0000 -31.7287 -10.0540 -48.9517 7.6159 7.1250 -0.0000 -0.0000 54.4017 -73.3204 -39.3411
